<svg version="1.0" xmlns="http://www.w3.org/2000/svg" width="256" height="256" viewBox="0 0 1280 882"><path d="M406.5 1.9c-9.2 4.2-37.4 28-55.7 46.9-16.4 17.1-26.8 30.6-38.1 49.4-5.4 8.9-14.9 23.3-21.2 31.8-10.9 14.8-21.1 32.6-27.3 47.7-3.2 8.1-4.9 7-4.8-2.9.1-5-.3-8.2-1-8.5-.6-.2-2.7.8-4.7 2.1-2 1.4-3.7 2.1-3.7 1.6 0-3.2-9.8 1.6-12.3 6-1.2 1.9-2.4 2.9-3.3 2.6-.8-.3-8-5.2-16.1-10.9-52.2-36.6-99-66.1-127.3-80.2-8.5-4.2-22.5-12.3-31-18-8.5-5.6-17.7-11.1-20.5-12.1-7-2.6-18.6-2.6-24 .1-3.6 1.8-4.2 2.6-5.6 8-1 3.3-2.6 8-3.7 10.5-4.7 10.4-7.4 39.2-5.3 57.8 4.5 41.6 24.6 89.3 51 121.6 8.3 10.1 23.9 24.9 35.2 33.4 9.1 6.7 10 7.8 15.2 16.9 13.7 24.5 18.9 38.1 19.1 50.8 0 4.4-.2 9.8-.6 12l-.8 4.1 6 1.1c4 .7 8 2.5 12.4 5.4l6.6 4.3-3.3 1.1c-3.6 1.1-4.7 4.4-2.2 6.5.8.7 4.7 2.9 8.6 5l7.1 3.7-3.8 1.9c-5.4 2.6-5.2 5.3.6 8.2 2.5 1.2 8.3 2.8 12.8 3.4 6.6 1 8.1 1.5 7.7 2.8-.3 1 .8 2 3.6 3.2 2.3 1 3.9 2.3 3.7 2.9-.7 2-8.1 6.8-14.3 9.4l-6 2.4 3 1.1c1.8.7 6.2 1 10.8.8l7.8-.5-3.3 3.5c-1.8 1.9-7.3 6.8-12.3 11-4.9 4.2-10 8.8-11.3 10.2-3 3.2-7.9 13.4-8.8 18.2-.8 4.9.4 4.9 7.9.4 5.3-3.2 5.7-3.3 5.2-1.3-2.1 9.4-3.8 22.3-4.2 33.9l-.6 13.7 3 2.9c2.3 2 3.6 4.9 5.2 10.6 2.6 9.3 4.6 13.6 6.6 13.6s2.9-4.2 2.1-10.1c-.5-3.4-.4-4.9.4-4.4.5.3 1 1.2 1 1.9s.8 2.4 1.8 3.7c1.4 1.8 2.5 7.6 4.5 22.4 1.6 11.9 4.5 27.5 7.2 38.5 4.4 18 6.5 30.5 6.5 38.2v3.8h-5.6c-7.9 0-25.2 2.6-36.1 5.5-9 2.4-37.1 12.4-42.6 15.2-4.8 2.4-10.8 8.5-13.3 13.5-3.6 7.1-20.7 51.7-24.3 63.3-6.4 21-5.9 32.5 1.5 32.5 1.6 0 2.4.6 2.4 1.7 0 3.6 4.9 9.9 10.5 13.2 10 6.1 20.8 5 29.7-2.9 2.4-2.1 7.2-4.9 10.5-6.3 7.6-3.1 16.4-8.8 20-13 1.4-1.8 4.4-7 6.6-11.6 4.8-10.2 5.5-18.2 1.9-23.1-1.9-2.6-2.1-3.7-1.5-10.9.4-6.2 1-8.2 2.2-8.6.9-.2 17.4-4.5 36.6-9.4 39.7-10.2 60.3-14.3 88.8-17.7l5.8-.6-.7 3.8c-.6 3.1-2.6 5.7-10.9 13.8-23.5 23.1-31.6 46.1-26.6 76.3l1.3 8.2-2.7 4.8c-7.4 12.8-19.5 25.8-28.5 30.3-1.9.9-7.3 3-12 4.5-15.6 5.1-26 11.5-32.9 20.2-10.6 13.2-10.5 23.8.1 27.6 8.2 3 25.8 4 40.8 2.3 8.2-1 20.2-1.5 30.5-1.3 19.4.2 21.8-.5 28.8-8.2 3.2-3.6 9.9-16.1 14.1-26.4 1.4-3.4 1.8-3.7 5.6-3.7 2.3 0 5.4-.7 7-1.5 2.7-1.4 3.2-1.3 7.7.9 2.6 1.4 8 3 11.8 3.7 3.9.6 7.1 1.3 7.3 1.4.2.2-.8 2.6-2.2 5.3-5.7 11.3-5.4 18.5 1 24.2 3.8 3.3 7.1 3.8 13.4 1.9 3.5-1.1 4.1-.9 7.6 1.9 6.1 4.9 11.4 5.7 27.8 4.4 7.7-.7 18.8-1.4 24.6-1.7 13.1-.6 20.7-2 28.9-5.2 6.3-2.5 6.6-2.5 15-1.2 10.7 1.6 105.6 2.3 117.6.8 10.1-1.3 36-7.6 57.4-14 13.3-4 17-4.8 19-4 6.9 2.7 12.6 3.3 37.6 4.1 20 .6 31.6 1.5 44.8 3.4 42.4 6.2 146.6 10.4 225 9.2 42-.6 52.6-1.2 82.7-4.7 38.7-4.4 45.7-4.9 74.5-5.9 43.9-1.5 63.1-4.1 85.3-11.5 19.1-6.4 24.8-10 47.1-29.9 28.1-25 32.3-29 38.6-36.9 9.5-11.7 9.4-11.4 3.7-12.1-12.1-1.7-40.4-8-49.6-11-12.4-4.1-21.3-8.5-36.6-18.1-6.3-3.9-15.5-9.6-20.5-12.5-10.9-6.4-14.4-8.9-35.5-25.1-26.5-20.3-43.1-30.5-77.5-47.6-18.8-9.4-21.7-10.5-56.5-21.7-41.6-13.4-64.2-19.2-87-22.2-20.4-2.6-51.6-1.2-65.1 3.1-1.1.4-1.9.3-1.9-.2 0-1.1 21.8-28.1 30.1-37.3 3.8-4.2 6.9-8 6.9-8.5 0-1.3-29.7.2-40 2-23.4 4.2-47.3 15.2-63.1 29.1-5.4 4.7-16 15.7-30.1 31.3l-6.7 7.4 2.4-5.9c1.3-3.2 2.9-8.4 3.6-11.4 1.1-5.5.9-22.4-.4-23.6-.4-.4-4.7 1.9-9.5 5.1-12.1 8.2-29.3 25.7-35.6 36.3-5.1 8.6-11.1 23.1-12.2 29.5-.4 2-1 3.7-1.4 3.7-.4 0-1.3-3.3-2-7.2-4.8-27.4-21.1-65.5-41-95.7-18.9-28.6-34-45.4-60.4-67-38.2-31.2-52.7-40-81.1-49.1-14.7-4.7-27.6-9.1-41.5-14.3l-9.4-3.5-1.2-4.6c-1.6-6.3-5.6-12.8-10-16.1-8.8-6.7-25.1-12.8-44.4-16.5-6.4-1.3-11.9-3-15.1-4.9l-5-2.8 9.6-8.9c9.7-9 23.8-24.4 23.1-25.1-.2-.3-2.1 0-4.2.6s-3.9.9-4 .8c-.1-.1 2.2-4.3 5.2-9.2 7-11.5 11.7-20.5 11-21.2-.3-.4-3 .3-6.1 1.4-3 1.2-5.5 1.8-5.5 1.4 0-1.5 5.6-6 9.2-7.5 2.1-.9 6.6-1.6 10.3-1.6 6.4 0 6.6-.1 5.9-2.3-2.3-7.4-7-13.8-15.2-20.6-4.7-3.9-7.1-7-9.9-12.4-2.1-4-3.6-8.2-3.5-9.5.2-1.2-.2-3.9-.8-6-.9-3.4-.6-4.9 2.9-13.9 9.4-24.1 19-58.6 23-82.8 3.5-21.1 4.4-33 3.7-49-.4-8.3-1.1-27.8-1.5-43.5l-.8-28.5-4.6-14.3c-3.8-11.6-4.7-15.6-4.7-21.5 0-8.5-1.4-14.1-4.1-16.8-2.4-2.4-5.2-2.4-10.4 0z" fill="#1e1e20"/></svg>